<svg id="visual" viewBox="0 0 900 600" width="900" height="600" xmlns="http://www.w3.org/2000/svg" xmlns:xlink="http://www.w3.org/1999/xlink" version="1.1"><g stroke-width="1" stroke-linejoin="bevel"><path d="M360 313L320 389L376 410Z" fill="#277297" stroke="#277297"></path><path d="M360 313L272 302L320 389Z" fill="#081a28" stroke="#081a28"></path><path d="M376 410L474 388L360 313Z" fill="#246688" stroke="#246688"></path><path d="M200 373L313 472L320 389Z" fill="#246688" stroke="#246688"></path><path d="M320 389L313 472L376 410Z" fill="#081a28" stroke="#081a28"></path><path d="M376 410L465 516L474 388Z" fill="#246688" stroke="#246688"></path><path d="M539 335L405 211L360 313Z" fill="#15384f" stroke="#15384f"></path><path d="M360 313L301 171L272 302Z" fill="#246688" stroke="#246688"></path><path d="M272 302L200 373L320 389Z" fill="#205a7a" stroke="#205a7a"></path><path d="M313 472L387 526L376 410Z" fill="#297ea6" stroke="#297ea6"></path><path d="M219 209L203 312L272 302Z" fill="#205a7a" stroke="#205a7a"></path><path d="M272 302L203 312L200 373Z" fill="#15384f" stroke="#15384f"></path><path d="M564 410L539 335L474 388Z" fill="#246688" stroke="#246688"></path><path d="M474 388L539 335L360 313Z" fill="#205a7a" stroke="#205a7a"></path><path d="M387 526L465 516L376 410Z" fill="#1d4e6b" stroke="#1d4e6b"></path><path d="M405 211L301 171L360 313Z" fill="#297ea6" stroke="#297ea6"></path><path d="M465 516L564 410L474 388Z" fill="#1d4e6b" stroke="#1d4e6b"></path><path d="M301 171L219 209L272 302Z" fill="#1d4e6b" stroke="#1d4e6b"></path><path d="M564 410L560 289L539 335Z" fill="#15384f" stroke="#15384f"></path><path d="M539 335L536 222L405 211Z" fill="#205a7a" stroke="#205a7a"></path><path d="M560 289L536 222L539 335Z" fill="#277297" stroke="#277297"></path><path d="M405 211L380 73L301 171Z" fill="#0c2435" stroke="#0c2435"></path><path d="M219 209L134 317L203 312Z" fill="#297ea6" stroke="#297ea6"></path><path d="M203 312L134 317L200 373Z" fill="#297ea6" stroke="#297ea6"></path><path d="M200 373L168 492L313 472Z" fill="#081a28" stroke="#081a28"></path><path d="M121 406L168 492L200 373Z" fill="#112e42" stroke="#112e42"></path><path d="M313 472L269 600L387 526Z" fill="#0c2435" stroke="#0c2435"></path><path d="M134 317L121 406L200 373Z" fill="#205a7a" stroke="#205a7a"></path><path d="M269 600L430 600L387 526Z" fill="#1d4e6b" stroke="#1d4e6b"></path><path d="M387 526L430 600L465 516Z" fill="#15384f" stroke="#15384f"></path><path d="M465 516L609 498L564 410Z" fill="#246688" stroke="#246688"></path><path d="M168 492L269 600L313 472Z" fill="#297ea6" stroke="#297ea6"></path><path d="M168 492L215 600L269 600Z" fill="#297ea6" stroke="#297ea6"></path><path d="M94 600L215 600L168 492Z" fill="#00101c" stroke="#00101c"></path><path d="M521 600L609 498L465 516Z" fill="#297ea6" stroke="#297ea6"></path><path d="M685 271L614 210L560 289Z" fill="#15384f" stroke="#15384f"></path><path d="M430 600L521 600L465 516Z" fill="#112e42" stroke="#112e42"></path><path d="M506 79L380 73L405 211Z" fill="#0c2435" stroke="#0c2435"></path><path d="M301 171L272 79L219 209Z" fill="#205a7a" stroke="#205a7a"></path><path d="M560 289L614 210L536 222Z" fill="#246688" stroke="#246688"></path><path d="M536 222L506 79L405 211Z" fill="#0c2435" stroke="#0c2435"></path><path d="M685 271L560 289L564 410Z" fill="#0c2435" stroke="#0c2435"></path><path d="M380 73L272 79L301 171Z" fill="#1d4e6b" stroke="#1d4e6b"></path><path d="M219 209L125 181L134 317Z" fill="#00101c" stroke="#00101c"></path><path d="M164 80L125 181L219 209Z" fill="#15384f" stroke="#15384f"></path><path d="M0 422L81 513L121 406Z" fill="#112e42" stroke="#112e42"></path><path d="M589 85L506 79L536 222Z" fill="#00101c" stroke="#00101c"></path><path d="M0 422L121 406L0 297Z" fill="#0c2435" stroke="#0c2435"></path><path d="M121 406L81 513L168 492Z" fill="#112e42" stroke="#112e42"></path><path d="M521 600L593 600L609 498Z" fill="#15384f" stroke="#15384f"></path><path d="M593 600L663 510L609 498Z" fill="#1d4e6b" stroke="#1d4e6b"></path><path d="M609 498L692 433L564 410Z" fill="#297ea6" stroke="#297ea6"></path><path d="M692 433L685 271L564 410Z" fill="#112e42" stroke="#112e42"></path><path d="M614 210L589 85L536 222Z" fill="#0c2435" stroke="#0c2435"></path><path d="M663 510L692 433L609 498Z" fill="#112e42" stroke="#112e42"></path><path d="M233 0L164 80L272 79Z" fill="#15384f" stroke="#15384f"></path><path d="M272 79L164 80L219 209Z" fill="#0c2435" stroke="#0c2435"></path><path d="M81 513L94 600L168 492Z" fill="#15384f" stroke="#15384f"></path><path d="M692 197L589 85L614 210Z" fill="#081a28" stroke="#081a28"></path><path d="M514 0L373 0L380 73Z" fill="#15384f" stroke="#15384f"></path><path d="M380 73L328 0L272 79Z" fill="#081a28" stroke="#081a28"></path><path d="M514 0L380 73L506 79Z" fill="#246688" stroke="#246688"></path><path d="M373 0L328 0L380 73Z" fill="#205a7a" stroke="#205a7a"></path><path d="M0 297L121 406L134 317Z" fill="#297ea6" stroke="#297ea6"></path><path d="M81 513L0 600L94 600Z" fill="#0c2435" stroke="#0c2435"></path><path d="M0 297L134 317L0 210Z" fill="#15384f" stroke="#15384f"></path><path d="M0 210L134 317L125 181Z" fill="#112e42" stroke="#112e42"></path><path d="M685 271L692 197L614 210Z" fill="#081a28" stroke="#081a28"></path><path d="M775 292L692 197L685 271Z" fill="#246688" stroke="#246688"></path><path d="M93 0L120 79L164 80Z" fill="#246688" stroke="#246688"></path><path d="M164 80L120 79L125 181Z" fill="#1d4e6b" stroke="#1d4e6b"></path><path d="M0 422L0 471L81 513Z" fill="#0c2435" stroke="#0c2435"></path><path d="M328 0L233 0L272 79Z" fill="#19435d" stroke="#19435d"></path><path d="M0 115L0 210L125 181Z" fill="#1d4e6b" stroke="#1d4e6b"></path><path d="M605 0L514 0L589 85Z" fill="#081a28" stroke="#081a28"></path><path d="M589 85L514 0L506 79Z" fill="#15384f" stroke="#15384f"></path><path d="M593 600L699 600L663 510Z" fill="#00101c" stroke="#00101c"></path><path d="M663 510L773 498L692 433Z" fill="#205a7a" stroke="#205a7a"></path><path d="M692 433L775 292L685 271Z" fill="#297ea6" stroke="#297ea6"></path><path d="M813 420L775 292L692 433Z" fill="#205a7a" stroke="#205a7a"></path><path d="M0 471L0 600L81 513Z" fill="#246688" stroke="#246688"></path><path d="M699 600L773 498L663 510Z" fill="#205a7a" stroke="#205a7a"></path><path d="M733 101L589 85L692 197Z" fill="#00101c" stroke="#00101c"></path><path d="M664 0L605 0L589 85Z" fill="#277297" stroke="#277297"></path><path d="M120 79L0 115L125 181Z" fill="#00101c" stroke="#00101c"></path><path d="M93 0L0 115L120 79Z" fill="#112e42" stroke="#112e42"></path><path d="M233 0L93 0L164 80Z" fill="#205a7a" stroke="#205a7a"></path><path d="M787 186L733 101L692 197Z" fill="#246688" stroke="#246688"></path><path d="M773 498L813 420L692 433Z" fill="#112e42" stroke="#112e42"></path><path d="M775 292L787 186L692 197Z" fill="#205a7a" stroke="#205a7a"></path><path d="M900 269L787 186L775 292Z" fill="#297ea6" stroke="#297ea6"></path><path d="M733 101L664 0L589 85Z" fill="#297ea6" stroke="#297ea6"></path><path d="M699 600L793 600L773 498Z" fill="#277297" stroke="#277297"></path><path d="M900 506L900 413L813 420Z" fill="#0c2435" stroke="#0c2435"></path><path d="M93 0L0 0L0 115Z" fill="#1d4e6b" stroke="#1d4e6b"></path><path d="M787 186L829 94L733 101Z" fill="#112e42" stroke="#112e42"></path><path d="M733 101L838 0L664 0Z" fill="#0c2435" stroke="#0c2435"></path><path d="M900 137L829 94L787 186Z" fill="#1d4e6b" stroke="#1d4e6b"></path><path d="M900 506L813 420L773 498Z" fill="#112e42" stroke="#112e42"></path><path d="M813 420L900 269L775 292Z" fill="#081a28" stroke="#081a28"></path><path d="M900 413L900 269L813 420Z" fill="#277297" stroke="#277297"></path><path d="M793 600L900 506L773 498Z" fill="#00101c" stroke="#00101c"></path><path d="M900 269L900 212L787 186Z" fill="#112e42" stroke="#112e42"></path><path d="M900 212L900 137L787 186Z" fill="#19435d" stroke="#19435d"></path><path d="M793 600L900 600L900 506Z" fill="#0c2435" stroke="#0c2435"></path><path d="M900 0L838 0L829 94Z" fill="#15384f" stroke="#15384f"></path><path d="M829 94L838 0L733 101Z" fill="#0c2435" stroke="#0c2435"></path><path d="M900 137L900 0L829 94Z" fill="#277297" stroke="#277297"></path></g></svg>